<?xml version="1.0" encoding="utf-8"?>
<!-- Generator: Adobe Illustrator 22.1.0, SVG Export Plug-In . SVG Version: 6.00 Build 0)  -->
<svg version="1.1" id="Réteg_1" xmlns="http://www.w3.org/2000/svg" xmlns:xlink="http://www.w3.org/1999/xlink" x="0px" y="0px"
	 viewBox="0 0 348.5 140.1" style="enable-background:new 0 0 348.5 140.1;" xml:space="preserve">
<style type="text/css">
	.st0{fill:#2E9CCA;}
</style>
<title>logo</title>
<path class="st0" d="M338.4,87v-5.8c0.4,0.2,0.8,0.6,0.9,1.1c0.3,1,0.2,2.1-0.2,3.1C338.9,86,338.7,86.6,338.4,87L338.4,87z
	 M338.4,65.3v-3.4l0.2-0.2c0.6-0.6,1.1-1.4,1.4-2.2c0.1-0.3,0.1-0.5,0.2-0.8c0.1-0.4,0.2-0.7,0.3-1c0.1-0.3,0.1-0.4,0.3-0.8
	c0.2-0.4,0.3-0.7,0.4-1c0.2-0.5,0.2-1.1,0-1.6c-0.3-0.4-0.7-0.7-1.2-0.6c-0.5,0-1,0.2-1.4,0.5v-3.6c0.6-0.1,1.3-0.1,1.9-0.1
	c3.3,0,5.6,1.2,7,3.5s1.4,5.2,0.3,8.7c-0.3,1-0.9,1.9-1.7,2.5c-0.9,0.5-2,0.8-3,0.7c-0.9,0-1.9-0.2-2.8-0.3
	C339.6,65.4,339,65.3,338.4,65.3z M338.4,50.5v3.6c-0.2,0.1-0.4,0.3-0.5,0.5c-0.7,0.8-1.1,1.8-1.4,2.8c-0.5,1.3-0.8,2.6-0.8,4
	c0,0.9,0.5,1.3,1.2,1.3c0.6-0.1,1.1-0.3,1.5-0.8v3.4c-0.6,0-1.2-0.1-1.7-0.1c-0.8,0-1.6,0.2-2.3,0.6c-0.6,0.4-1.1,0.9-1.3,1.6
	c0,0.2-0.1,0.5-0.2,0.9s-0.2,0.7-0.2,0.9c-0.1,0.2-0.4,1-0.7,1.8c-0.3,0.8-0.6,1.4-0.7,1.8c-0.2,0.7-0.5,1.6-0.9,2.8
	c-0.4,1.2-0.6,2-0.8,2.4c-0.4,1.2-0.9,2.6-1.5,4.1s-1,2.4-1.1,2.8c-0.6,1.4-0.8,2.8-0.7,4.3c0.1,0.8,0.8,1.5,1.6,1.4l0,0
	c1.1,0,2.1-0.4,2.8-1.2c0.9-0.7,1.5-1.7,1.9-2.8c0.1-0.3,0.2-0.6,0.2-0.9c0.1-0.3,0.1-0.6,0.2-0.9c0.4-1,1-1.9,1.9-2.5
	c0.8-0.7,1.8-1.1,2.8-1.1c0.3,0,0.5,0.1,0.8,0.2V87c-1.1,1.8-2.6,3.3-4.5,4.3c-2.6,1.6-5.6,2.5-8.6,2.5c-3.6,0-6-1.4-7.3-4.1V76.5
	c0.4-1.4,0.8-2.9,1.3-4.5c0.8-2.4,1.8-4.8,3.1-7.1c1.2-2.3,2.6-4.4,4.2-6.4c1.9-2.5,4.1-4.6,6.7-6.3
	C334.9,51.3,336.7,50.7,338.4,50.5L338.4,50.5z M318,139.4v-4.2h5c0.3,0,0.5,0,0.5,0.2s-0.1,0.6-0.3,1.6s-0.4,1.7-0.4,2
	c0,0.5-0.2,0.8-0.4,0.8c-0.5,0-1.2,0-2.1-0.1c-1-0.1-1.7-0.1-2.1-0.1L318,139.4z M318,127.9v-9.3c2.3,0,3.7,0,4,0.1
	c0.4,0,0.6,0.2,0.6,0.5c0.1,1.3,0,2.5-0.3,3.8c-0.1,0.2-1.4,1.7-3.8,4.4C318.5,127.4,318,127.9,318,127.9z M318,55.6
	c0.3-0.4,0.5-0.9,0.6-1.4c0.5-1.2,0.5-2.6,0-3.9c-0.2-0.3-0.4-0.6-0.7-0.8L318,55.6z M318,49.5v6.1c-0.4,0.7-0.8,1.3-1.4,1.8
	c-0.7,0.8-1.7,1.3-2.8,1.4c-0.6,0-1.1-0.2-1.6-0.5c-0.4-0.2-0.8-0.4-1.3-0.5c-0.3,0-0.5,0.1-0.7,0.3s-0.4,0.5-0.5,0.8
	c-0.1,0.8,0,1.5,0.2,2.3c1,5.8,0.5,11.8-1.4,17.4c-0.7,2.2-1.4,4.5-1.9,6.7c-0.5,2.3-0.9,3.8-0.9,4.5c0,0.2,0.2,0.4,0.5,0.7
	c0.3,0.3,0.4,0.8,0.2,1.2c-0.1,0.5-0.5,0.9-0.9,1.1c-0.7,0.3-1.4,0.4-2.1,0.3c-0.4,0-0.9,0-1.7-0.1c-0.6-0.1-1.3-0.1-1.9-0.1
	c-0.5,0-0.9,0.1-1.4,0.1c-0.5,0.1-0.9,0.1-1.4,0.1c-2.3,0-2.5-3-0.7-9.1c0.5-1.6,0.9-2.8,1.1-3.8c1-3.1,1.7-6.4,2.1-9.6
	c0.2-2.1-0.2-3.1-1.1-3.1c-0.3,0-0.6,0.1-0.7,0.4c-0.3,0.2-0.4,0.5-0.5,0.9c0,0.1,0,0.2,0,0.3c-0.4,2.5-1.1,4.9-1.9,7.3l-1.9,5.8
	l-1.4,4.2l-0.8,1.9c-0.3,1-0.2,1.7,0.4,2.1c0.5,0.3,0.8,0.9,0.6,1.4c-0.1,0.4-0.4,0.8-0.7,1.1c-0.4,0.2-0.8,0.4-1.2,0.3
	c-0.5,0-1.4,0-2.8-0.1s-2.4-0.1-3.2-0.1c-0.4,0-1,0-2,0.1l-1.4,0.1v-5.9l0.3-1.1c0.4-1.5,0.9-3.1,1.4-4.6c0.4-1,0.9-2.5,1.5-4.4
	c0.7-1.9,1.1-3.2,1.4-4.1c0-0.2,0.2-0.7,0.5-1.7s0.5-1.8,0.8-2.6c0.3-0.8,0.5-1.4,0.9-2.4s0.6-1.7,0.8-2.2c0.1-0.4,0.3-0.9,0.4-1.6
	c0.2-0.7,0.4-1.3,0.5-1.7c0.2-0.7,0.6-1.6,1.1-2.7c0.5-1.1,0.8-1.8,0.9-2.2s0.3-1.2,0.5-2.4c0.2-1,0.4-2,0.7-3
	c0.1-0.4,0.5-1.2,1-2.5c0.5-1,0.9-2,1.2-3c0.2-0.5,0-1.2-0.4-1.5c-0.5-0.4-0.7-0.7-0.6-0.9c0.2-0.6,0.6-1.1,1.1-1.4
	c0.7-0.3,1.4-0.5,2.2-0.4c0.5,0,0.9,0.1,1.4,0.1c0.5,0.1,1.1,0.1,1.6,0.2c0.5,0,1-0.1,1.5-0.2c0.5-0.1,1-0.1,1.5-0.1
	c1.5,0,2.4,0.3,2.7,0.8c0.3,0.5,0.2,1.6-0.4,3.4c-0.1,0.3-0.3,0.8-0.6,1.4c-0.3,0.6-0.5,1.2-0.6,1.6c-0.1,0.4-0.2,0.7-0.3,1.1
	c-0.1,0.4-0.2,0.7-0.3,0.9c-0.1,0.2-0.3,0.8-0.6,1.6s-0.5,1.4-0.7,1.9s-0.3,1-0.5,1.7s-0.4,1.3-0.5,1.6c-0.3,0.8-0.6,1.6-0.9,2.3
	c-0.4,0.8-0.6,1.2-0.6,1.3c-0.2,0.3-0.2,0.7,0,1.1c0.3,0.3,0.7,0.4,1,0.3c1-0.1,2-0.5,2.8-1.2c1.2-0.9,2.3-2,3.1-3.3l1-1.6
	c3-4.7,5.8-7,8.3-7C316.6,48.8,317.4,49,318,49.5L318,49.5z M318,76.5c-1.2,4.8-1.4,8.7-0.6,11.6c0.1,0.5,0.3,1.1,0.6,1.6V76.5z
	 M318,118.6v9.3c-1.5,1.8-3.7,4.2-6.5,7.4l6.5-0.2v4.2c-1,0-2.3,0-4.1,0c-1.4,0-3,0-4.8,0.2c-2.2,0.1-3.2,0.2-2.8,0.2
	c-0.3,0-0.5-0.1-0.6-0.4c-0.2-0.8-0.3-1.6-0.3-2.4c0-0.1,0-0.3,0-0.6c0-0.2,0-0.4,0-0.5c0.1-0.3,0.2-0.6,0.5-0.7
	c0.3-0.3,1.9-2,4.8-5.1c1.4-1.5,3.5-3.9,6.1-7H307c-0.2,0-0.4-0.2-0.4-0.5c0-0.6,0.1-1.3,0.2-1.9s0.2-1.3,0.3-1.9
	c0-0.2,0.2-0.3,0.6-0.3c0.8,0,2.1,0,3.7,0.1s2.9,0.1,3.7,0.1L318,118.6z M280.6,138.5v-8.1c0.6-1,1.2-2.1,1.6-3.2
	c0.1-1.3,0.2-2.6,0.2-3.8c0-0.7-0.1-1.5-0.2-2.2c-0.1-1-0.2-1.7-0.2-2.2c0-0.2,0.1-0.3,0.2-0.3h0.1c0.5,0,1.2,0,2.2-0.1
	s1.7-0.1,2.1-0.1c0.5,0,0.7,2.1,0.7,6.3c0.1,1.2,0,2.4-0.2,3.7c-1,2.1-2.3,4-3.6,5.9C282.2,136.2,281.2,137.6,280.6,138.5
	L280.6,138.5z M280.6,47.4c1.2-0.7,2.2-1.8,2.7-3.1c0.3-0.7,0.1-1.6-0.5-2.1s-1.4-0.8-2.2-0.8V47.4z M299.7,112.8c0,1.8-1,2.8-3,2.8
	s-3.1-0.9-3.1-2.8c0-0.8,0.3-1.6,1-2.1c0.6-0.5,1.4-0.8,2.1-0.7c0.8,0,1.6,0.3,2.2,0.8C299.4,111.3,299.8,112,299.7,112.8
	L299.7,112.8z M299.6,118.9c0,1.2,0,2.8-0.2,5.2s-0.2,4.1-0.2,5.2c0,1.2,0,2.7,0.1,4.9s0.1,3.8,0.1,4.9c0,0.3-0.1,0.5-0.4,0.5h-4.3
	c-0.3,0-0.5-0.3-0.5-0.9c0-1,0-2.6,0-4.6c0-2.1,0-3.6,0-4.7c0-1.1-0.1-2.9-0.3-5.2s-0.3-4.1-0.3-5.2c0-0.3,0.2-0.4,0.5-0.4
	c0.4,0,0.8,0.1,1.2,0.1c0.8,0.1,1.7,0.1,2.5,0c0.4-0.1,0.8-0.1,1.3-0.1C299.5,118.4,299.6,118.6,299.6,118.9L299.6,118.9z
	 M280.5,41.4v6c-0.2,0.1-0.4,0.3-0.6,0.4c-0.3,0.2-0.6,0.3-0.9,0.5v-6.8c0.3,0,0.7,0,1,0L280.5,41.4z M280.5,87.3v5.8h-1H279v-2.9
	c0.6-0.4,1-1,1.2-1.7C280.2,88.6,280.3,88.1,280.5,87.3z M280.5,130.4v8.1c-0.3,0.4-0.6,0.8-1,1c-0.2,0-0.3,0.1-0.5,0.1v-6.8
	c0.3-0.4,0.6-1,1-1.6L280.5,130.4z M279.1,57.2v-6c0.7,0.1,1.2,0.3,1.3,0.8c0.1,1.1-0.1,2.2-0.5,3.2l-0.4,1.1
	C279.3,56.6,279.2,56.9,279.1,57.2z M279.1,41.4v6.8c-1.4,0.7-3,1.1-4.6,1.1c-0.9,0.1-1.8-0.2-2.5-0.8c-0.5-0.6-0.7-1.4-0.4-2.1
	c0.6-1.5,1.8-2.8,3.3-3.5C276.1,42.1,277.5,41.6,279.1,41.4L279.1,41.4z M279.1,51.2v5.9c-0.1,0.3-0.2,0.6-0.3,0.9
	c-0.2,0.6-0.5,1.7-1,3.4s-0.9,3.1-1.2,4.2c-0.1,0.3-0.2,0.6-0.4,1.1l-0.4,1.1c-0.3,0.9-0.7,2.1-1.1,3.5s-0.7,2.3-0.8,2.8
	c-0.2,0.7-0.6,1.9-1.2,3.7c-0.6,1.8-1.1,3.2-1.4,4.3c-0.3,1.1-0.7,2.1-1,3.3c-0.4,1.2-0.6,1.9-0.6,2.2c-0.5,1.5-0.6,2.5-0.3,3
	c0.3,0.4,0.5,0.7,0.5,0.8c-0.2,0.6-0.5,1.1-0.9,1.6c-0.4,0.3-0.9,0.5-1.4,0.5l-1.9-0.1c-1.2-0.1-2.4-0.1-3.6-0.1h-0.9V80.1
	c0.4-1.2,0.7-2.2,1-3.1s0.6-1.8,1.1-3.3l1.2-3.4c0.1-0.4,0.4-1.2,0.7-2.3c0.3-1.1,0.6-2,0.8-2.7c0.9-2.8,2-5.7,3.2-8.8l0.5-1.4
	c0.1-0.4-0.1-0.9-0.4-1.2c-0.4-0.4-0.5-0.8-0.4-1.1c0.2-0.5,0.5-1,0.9-1.2c0.5-0.3,1.1-0.4,1.7-0.4h0.7c0.3,0,0.6,0.1,0.9,0.1
	c1.2,0,2.4,0,3.7-0.1h1.9c0.2,0,0.3,0,0.5,0L279.1,51.2z M279.1,90.3L279.1,90.3c-0.4,0.2-0.7,0.4-1,0.7c-0.3,0.6-0.4,1.2-0.3,1.8
	c0.1,0.2,0.5,0.4,1.3,0.4V90.3L279.1,90.3z M279.1,132.8v6.8c-0.3,0-0.8,0-1.4,0c-0.7,0-1.3,0-2-0.1c-0.4-0.1-1.8-1.8-4.1-5
	c-1.4-1.8-2.7-3.7-3.8-5.8c-0.4-1.4-0.6-2.9-0.6-4.3c0-0.6,0-1.5,0-2.8s0-2.1,0-2.8c0-0.2,0.1-0.5,0.4-0.5h0.1c0.5,0,1.2,0,2.2,0
	s1.7,0.1,2.2,0.1c0.3,0,0.4,0.2,0.4,0.4c0,0.3,0,1.2-0.1,2.1s-0.1,1.6-0.1,2.1c0,1.3,0.1,2.5,0.2,3.8c0.6,1.5,1.3,2.9,2.3,4.2
	c1.4,2.2,2.3,3.3,2.7,3.3c0.3,0,0.7-0.5,1.4-1.6L279.1,132.8z M261,123.5v-5.4c1.2,0,1.7,0.2,1.7,0.5c0,1.5-0.1,3-0.3,4.5
	c0,0.3-0.2,0.5-0.4,0.5C261.7,123.5,261.3,123.5,261,123.5L261,123.5z M261,48.9V29.1c1,0.6,1.9,1.3,2.7,2.2
	c2.5,2.9,2.9,6.5,1.5,10.9C264.3,44.7,262.9,47,261,48.9z M261,29.1v19.8l0,0c-1.6,1.9-3.6,3.3-5.9,4.2l-1.5,0.3
	c-1.7,0.2-2.6,0.7-2.8,1.4s0.3,1.2,1.5,1.8c0.9,0.3,1.7,0.8,2.5,1.3c1.7,1.6,2.7,3.8,2.8,6.1c0.1,3.3-0.4,6.5-1.5,9.6
	c-2.3,6.6-5.5,11.5-9.7,14.7c-0.5,0.4-1.1,0.8-1.7,1.2V50.9c0.9-1.1,1.7-2.4,2.1-3.7l0.4-1.3c0.1-0.4,0.4-0.9,0.7-1.7
	c0.3-0.6,0.5-1.2,0.7-1.8c1.1-2.9,1.7-5.9,1.7-9c-0.2-2-1.1-3.1-2.8-3.1c-0.5,0-1,0.2-1.4,0.6c-0.5,0.5-0.8,1-1,1.7
	c0,0-0.1,0.4-0.2,0.9c-0.1,0.5-0.2,1-0.4,1.5v-7.5c0.8,0,1.8-0.1,2.8-0.2c1.9-0.2,3.3-0.3,4.1-0.3c3.2-0.1,6.4,0.6,9.3,2.1
	C260.7,29.1,261,29.1,261,29.1z M261,80.1c-0.2,0.5-0.3,1.1-0.5,1.7c-0.5,1.9-0.9,3.1-1.1,3.7c0,0.1-0.2,0.5-0.4,1.1
	c-0.2,0.6-0.4,1.2-0.6,1.8l-0.1,0.4c-0.2,0.7-0.6,1.3-1.2,1.8c-0.4,0.3-0.7,0.6-0.9,1.1c-0.1,0.4-0.1,0.8,0,1.1
	c0.1,0.3,0.3,0.5,0.6,0.5l1.9-0.1c0.8,0,1.6-0.1,2.3-0.1L261,80.1L261,80.1z M261,118.1v5.4h-0.4c-0.5-0.1-0.9-0.1-1.4-0.1
	c-1.9,0-3.1,0.5-3.6,1.6c-0.4,1.3-0.5,2.6-0.4,4v2.4c0,0.8,0,2.1,0.1,3.8s0.1,3,0.1,3.8c0,0.4-0.2,0.6-0.5,0.6h-2.1h-2.1
	c-0.4,0-0.5-0.2-0.5-0.6c0-1.2,0-3,0-5.5c0-2.4,0-4.2,0-5.5c0.1-3-0.3-6-1.1-8.9c0-0.1,0-0.2,0-0.3c0-0.2,0.1-0.3,0.3-0.4l2.3-0.3
	c0.8-0.1,1.5-0.3,2.2-0.4c0.2,0,0.4,0.4,0.5,1.3s0.2,1.3,0.4,1.3h0.1l1.8-1.2c0.6-0.4,1.3-0.7,2-0.9
	C259.5,118.2,260.3,118.1,261,118.1L261,118.1z M244.8,27.5V35c-0.8,3.4-1.9,7-3.2,11c-0.4,1.2-0.9,2.5-1.5,3.6l-0.9,1.8
	c-0.2,0.5-0.1,1,0.2,1.4s0.7,0.6,1.2,0.6c1.4-0.1,2.7-0.8,3.6-1.9c0.2-0.2,0.4-0.4,0.6-0.7v38.6c-3.1,1.9-6.6,3.1-10.2,3.5v-8.6
	c1.7-3.4,3.1-6.9,4.2-10.5c2-6.1,3-10.3,3.1-12.8c0-2.5-0.8-3.7-2.6-3.7c-0.7,0-1.4,0.2-1.9,0.6c-0.6,0.4-1,0.9-1.2,1.5
	c0,0.2,0,0.4,0,0.5c0,2.6-0.5,5.3-1.4,7.8l-0.2,0.6V27.2c2.9,0.2,5.8,0.3,8.7,0.3H244.8L244.8,27.5z M234.6,140.1v-4.4h0.3
	c2.4,0,4.6-0.8,6.5-2.3l0.7-0.6c0.1,0,0.2,0,0.2,0c0.3,0.5,0.6,1,0.8,1.6c0.3,0.5,0.6,1.1,0.8,1.6c0,0.1-0.1,0.3-0.4,0.5
	c-2.2,2.3-5.2,3.6-8.4,3.5L234.6,140.1z M234.6,130.6V127c0.9-0.1,1.9-0.2,2.9-0.4c1-0.1,1.3-0.3,1.3-0.4c0-1.3-0.6-2.4-1.5-3.3
	c-0.7-0.8-1.7-1.2-2.7-1.4v-4.3c2.6,0,5,1.2,6.7,3.1c1.8,2,2.8,4.6,2.8,7.3c0.1,1-0.5,1.9-1.4,2.2
	C240,130.2,237.3,130.5,234.6,130.6z M234.6,27.2v41.2l-1.3,3.9c-0.5,1.4-1,3-1.6,4.5s-0.9,2.3-0.9,2.4l-0.6,1.8
	c-0.4,1.3-1,2.6-1.7,3.9s-1.1,2.1-1.1,2.2c-0.3,0.6-0.3,1.2,0,1.8c0.3,0.5,0.8,0.7,1.3,0.7c1.7,0,3.4-1.2,5-3.6
	c0.3-0.4,0.6-0.9,0.9-1.5V93c-1.3,0.2-2.6,0.2-3.9,0.2c-2.8,0-5.4,0-8.1-0.1l-4-0.1c-2,0-4.2,0-6.6,0.1h-1.3c-0.9,0-1.4-0.2-1.5-0.5
	V92c0.1-0.6,0.3-1.1,0.4-1.6c0.2-0.7,0.7-1.2,1.4-1.5c0.6-0.2,1.1-0.7,1.3-1.2c0.1-0.3,0.1-0.6,0.2-0.9c0.1-0.4,0.1-0.7,0.2-1.1
	c0-0.1,0.4-1,1.1-2.7c0.7-1.7,1.3-3.4,1.8-5c0.4-1.3,1.3-4.2,2.7-8.6c1.3-4.4,2.5-8,3.5-11.1l2.3-7c0.8-2.5,1.7-5.2,2.5-8.1
	c0.9-2.9,1.4-4.5,1.5-4.9c0.2-0.7,0.5-1.4,0.8-2.1c0.4-0.9,0.7-1.6,0.8-2.1c0.4-0.8,0.4-1.8,0-2.7c-0.4-0.5-0.5-1.1-0.4-1.7
	c0.2-0.8,0.6-1.6,1.1-2.2c0.4-0.4,1-0.6,1.6-0.5l1.1,0.1L234.6,27.2L234.6,27.2z M234.6,117.2v4.3c-0.2,0-0.4,0-0.6,0
	c-1.4,0-2.7,0.6-3.6,1.7c-1,1-1.6,2.3-1.6,3.7c0,0.3,0.3,0.5,0.8,0.5c1.7,0,3.4-0.1,5-0.3v3.6c-1.7,0.1-3.6,0.3-5.8,0.4
	c0.3,1.4,1,2.5,2.2,3.3c1,0.8,2.3,1.2,3.6,1.3v4.4c-2.9,0-5.6-1.1-7.7-3.1c-2.1-2.2-3.3-5.2-3.1-8.3c-0.1-2.9,1-5.8,2.9-8
	c1.9-2.3,4.7-3.6,7.6-3.5L234.6,117.2L234.6,117.2z M209.1,139.4v-4.1c4.2-0.1,7.6-0.2,10.1-0.2c0.4,0,0.5,0,0.5,0.2
	s-0.1,0.6-0.3,1.6s-0.4,1.7-0.4,2c0,0.5-0.2,0.8-0.4,0.8c-0.5,0-1.2,0-2.1-0.1c-0.9-0.1-1.7-0.1-2.1-0.1c-1,0-2.4,0-4.3,0
	L209.1,139.4z M209.1,133.7v-6.3c1.1-1.2,2.4-2.7,3.8-4.4h-3.8v-4.4c0.9,0,1.7,0,2.2,0c4.1,0,6.4,0,6.9,0.1c0.4,0,0.6,0.2,0.6,0.5
	c0.1,1.3,0,2.5-0.3,3.8c-0.1,0.2-1.4,1.7-3.8,4.4C213.4,128.8,211.5,130.9,209.1,133.7L209.1,133.7z M209.1,52.5c0-0.4,0-0.7,0-1.1
	V52.5z M209.1,51.4v1.1c-0.1,0.6-0.2,1.1-0.4,1.7c-0.4,1.3-1.1,2.4-2.1,3.3c-0.8,0.8-1.8,1.3-2.9,1.3c-0.6,0-1.1-0.2-1.6-0.5
	c-0.4-0.2-0.8-0.4-1.3-0.5c-0.3,0-0.5,0.1-0.7,0.3s-0.4,0.5-0.5,0.8c-0.1,0.8,0,1.5,0.2,2.3c1,5.8,0.5,11.8-1.4,17.4
	c-0.7,2.2-1.4,4.5-1.9,6.7c-0.5,2.3-0.9,3.8-0.9,4.5c0,0.2,0.2,0.4,0.5,0.7c0.3,0.3,0.4,0.8,0.2,1.2c-0.1,0.5-0.5,0.9-0.9,1.1
	c-0.7,0.3-1.4,0.4-2.1,0.3c-0.4,0-0.9,0-1.7-0.1c-0.6-0.1-1.3-0.1-1.9-0.1c-0.5,0-0.9,0.1-1.4,0.1c-0.5,0.1-0.9,0.1-1.4,0.1
	c-2.3,0-2.5-3-0.7-9.1c0.5-1.6,0.9-2.8,1.1-3.8c1-3.1,1.7-6.4,2.1-9.6c0.2-2.1-0.2-3.1-1.1-3.1c-0.3,0-0.6,0.1-0.7,0.4
	c-0.3,0.2-0.4,0.5-0.5,0.9c0,0.1,0,0.2,0,0.3c-0.4,2.5-1.1,4.9-1.9,7.3l-1.9,5.8l-1.4,4.2l-0.6,1.8c-0.3,1-0.2,1.7,0.4,2.1
	c0.5,0.3,0.8,0.9,0.6,1.4c-0.1,0.4-0.4,0.8-0.7,1.1c-0.4,0.2-0.8,0.4-1.2,0.3c-0.5,0-1.4,0-2.8-0.1c-1.4-0.1-2.4-0.1-3.2-0.1
	c-0.4,0-1,0-2,0.1c-0.7,0.1-1.4,0.1-1.9,0.1v-4c0.1-0.1,0.1-0.3,0.2-0.5c0,0,0.2-0.8,0.6-2.4c0.4-1.6,0.8-3.1,1.4-4.6
	c0.4-1,0.9-2.5,1.5-4.4s1.1-3.2,1.4-4.1c0-0.2,0.2-0.7,0.5-1.7s0.5-1.8,0.8-2.6c0.3-0.8,0.5-1.4,0.9-2.4s0.6-1.7,0.8-2.2
	c0.1-0.4,0.3-0.9,0.4-1.6c0.2-0.7,0.4-1.3,0.5-1.7c0.2-0.7,0.6-1.6,1.1-2.7c0.5-1.1,0.8-1.8,0.9-2.2s0.3-1.2,0.5-2.4
	c0.2-1,0.4-2,0.7-3c0.1-0.4,0.5-1.2,1-2.5c0.5-1,0.9-2,1.2-3c0.2-0.5,0-1.2-0.4-1.5c-0.5-0.4-0.7-0.7-0.6-0.9
	c0.2-0.6,0.6-1.1,1.1-1.4c0.7-0.3,1.4-0.5,2.2-0.4c0.5,0,0.9,0.1,1.4,0.1c0.5,0.1,1.1,0.1,1.6,0.2c0.5,0,1-0.1,1.5-0.2
	c0.5-0.1,1-0.1,1.5-0.1c1.5,0,2.4,0.3,2.7,0.8s0.2,1.6-0.4,3.4c-0.1,0.3-0.3,0.8-0.6,1.4c-0.3,0.7-0.5,1.2-0.6,1.6
	c-0.1,0.4-0.2,0.7-0.3,1.1c-0.1,0.4-0.2,0.7-0.3,0.9s-0.3,0.7-0.6,1.6c-0.3,0.8-0.5,1.4-0.7,1.9s-0.3,1-0.5,1.7s-0.4,1.3-0.5,1.6
	c-0.3,0.8-0.6,1.6-0.9,2.3c-0.4,0.8-0.6,1.2-0.6,1.3c-0.2,0.3-0.2,0.7,0,1.1c0.3,0.3,0.7,0.4,1,0.3c1-0.1,2-0.5,2.8-1.2
	c1.2-0.9,2.2-2,3-3.3l1-1.6c3-4.7,5.8-7,8.3-7c1.2-0.1,2.3,0.4,2.9,1.4C208.9,50.6,209.1,50.9,209.1,51.4L209.1,51.4z M209.1,92.1
	c0,0.2,0,0.4,0,0.6l0,0V92.1L209.1,92.1z M209.1,118.6v4.4h-6c-0.2,0-0.4-0.2-0.4-0.5c0-0.7,0.1-1.3,0.3-2c0.1-0.6,0.2-1.3,0.3-1.9
	c0-0.2,0.2-0.3,0.6-0.3c0.8,0,2.1,0,3.7,0.1h1.5L209.1,118.6z M209.1,127.5v6.3l-1.4,1.6h1.4v4c-1.2,0-2.4,0-3.8,0.2
	c-2.2,0.1-3.1,0.2-2.8,0.2c-0.3,0-0.5-0.1-0.6-0.4c-0.2-0.8-0.3-1.7-0.3-2.5c0-0.1,0-0.3,0-0.6c0-0.2,0-0.4,0-0.5
	c0.1-0.3,0.2-0.6,0.5-0.7c0.3-0.3,1.9-2,4.7-5.1C207.4,129.2,208.2,128.4,209.1,127.5L209.1,127.5z M170.1,139.6v-21.3h0.1
	c0.8-0.1,1.5-0.3,2.2-0.4c0.3,0,0.4,0.4,0.5,1.3s0.2,1.3,0.4,1.3h0.1l1.8-1.2c0.6-0.4,1.3-0.7,2-0.9c0.7-0.2,1.5-0.3,2.2-0.3
	c1.2,0,1.8,0.2,1.8,0.5c0,1.5-0.1,3-0.3,4.5c0,0.3-0.2,0.5-0.4,0.5c-0.5,0-0.9,0-1.4-0.1s-0.9-0.1-1.4-0.1c-1.9,0-3.1,0.5-3.6,1.6
	c-0.4,1.3-0.5,2.6-0.4,4v2.4c0,0.8,0,2.1,0.1,3.8s0.1,3,0.1,3.8c0,0.4-0.2,0.6-0.5,0.6h-2.1H170.1z M170.1,62.2
	c0.8-0.8,1.5-1.8,1.9-3c0.8-2,0.6-4.2-0.5-6c-0.4-0.6-0.8-1.1-1.4-1.5V62.2L170.1,62.2z M197.1,132.6c0.1,2.1-0.9,4.1-2.6,5.3
	c-1.7,1.2-3.8,1.9-5.9,1.8c-0.5,0.1-1,0.1-1.5,0c-0.3-0.1-0.4-0.5-0.4-1.1c0-0.3,0-0.8-0.1-1.5c-0.1-0.5-0.1-0.9-0.1-1.4
	c0-0.2,0.1-0.3,0.4-0.4c0.3-0.1,0.6-0.1,0.8,0h0.7c2.8,0,4.2-0.9,4.2-2.6c0-0.8-0.6-1.6-1.9-2.3c-1.2-0.6-2.3-1.3-3.5-2
	c-1.2-1-1.9-2.6-1.9-4.2c-0.1-2,0.8-4,2.5-5.2s3.7-1.8,5.8-1.7c0.2,0,0.4,0.1,0.5,0.3c0.2,0.6,0.4,1.2,0.6,1.8
	c0.2,0.6,0.3,1.2,0.4,1.8c0,0.2-0.1,0.3-0.4,0.3c-0.9,0.1-1.9,0.3-2.9,0.4s-1.7,0.9-1.7,1.9c0,0.7,0.6,1.4,1.8,2s2.3,1.3,3.4,2.2
	C196.4,129.3,197.1,131,197.1,132.6z M170.1,51.6v10.5c-0.2,0.2-0.4,0.4-0.6,0.5c-1,0.9-2.3,1.4-3.6,1.4c-1,0.1-2-0.4-2.5-1.3
	c-0.4-1.1-0.4-2.3,0-3.3c0.3-0.8,0.7-1.6,1.1-2.4c0.4-0.6,0.7-1.2,1-1.9c0.1-0.4,0.1-0.8-0.2-1.2c-0.2-0.4-0.5-0.6-1-0.6
	c-0.9,0.1-1.6,0.6-2,1.4c-1.2,2.4-2.1,4.8-2.8,7.3c-0.3,1-0.7,2.3-1.1,3.8s-0.7,2.6-0.9,3.1l-2.3,6.9c-0.1,0.3-0.4,1.4-1,3.3
	s-1.2,3.6-1.7,5.2c-0.3,1-0.6,2-0.8,3.1V58c0.5-0.6,1.1-1.2,1.6-1.7c3.4-3.6,8-5.6,12.9-5.8C167.6,50.4,169,50.8,170.1,51.6
	L170.1,51.6z M170.1,89.1v4.1h-0.7c-0.9,0-1.4-0.1-1.5-0.4c-0.1-0.6,0.1-1.2,0.3-1.8c0.3-0.2,0.6-0.5,0.9-0.7
	C169.5,90,169.9,89.6,170.1,89.1L170.1,89.1z M170.1,118.3v21.3h-1c-0.3,0-0.5-0.2-0.5-0.6c0-1.2,0-3,0-5.5c0-2.4,0-4.2,0-5.5
	c0.1-3-0.3-6-1.1-8.9c0-0.1,0-0.2,0-0.3c0-0.2,0.1-0.3,0.3-0.4C167.9,118.5,170.1,118.3,170.1,118.3z M151.7,140v-4.6l0,0
	c1.7,0,3.3-0.7,4.4-2.1c2.2-2.7,2.2-6.6,0-9.3c-1.1-1.3-2.7-2.1-4.4-2.1v-4.6c2.9,0,5.8,1.2,7.7,3.4c4.1,4.5,4.2,11.4,0.1,15.9
	C157.6,138.8,154.8,140.1,151.7,140L151.7,140z M151.7,93.9c2.4-0.3,4.7-1.3,6.6-2.7c2.3-1.5,4-3.6,4.9-6.1c0.4-0.8,0.4-1.8,0-2.6
	c-0.5-0.7-1.3-1.1-2.1-1c-1,0-1.9,0.3-2.6,0.9c-0.8,0.7-1.4,1.6-1.7,2.6c-0.2,0.5-0.3,0.9-0.3,1.4c-0.1,0.5-0.2,0.9-0.3,1.4
	c-0.2,0.7-0.7,1.4-1.3,1.9c-0.4,0.5-1,0.8-1.7,0.8s-1.2-0.4-1.4-1.1L151.7,93.9z M151.7,58v29.6c-0.1,0.5-0.1,1-0.1,1.6
	c0,0.1,0,0.3,0.1,0.4V94c-0.3,0-0.6,0-0.9,0c-3.8,0.3-7.3-2.3-8.2-6c-1.2-4-0.7-9.4,1.5-16C145.7,66.8,148.3,62,151.7,58L151.7,58z
	 M151.7,117.4v4.6l0,0c-1.7,0-3.3,0.7-4.4,2c-2.2,2.7-2.2,6.6,0.1,9.3c1.1,1.3,2.7,2.1,4.4,2.1v4.6c-2.9,0.1-5.8-1.2-7.7-3.4
	c-2-2.1-3.1-5-3.1-8c-0.1-2.9,1-5.8,3-8C145.9,118.5,148.8,117.3,151.7,117.4L151.7,117.4z M122.3,122.6v-3.8h0.2h1.1
	c0.7,0,1-0.3,1-0.9s0-1.5,0-2.7s0-2.1,0-2.8c0-1.1,0.2-1.6,0.6-1.6c0.1,0,1.5,0.2,4.2,0.7c0.4,0,0.5,0.2,0.5,0.5
	c0,0.6,0,1.6-0.1,2.9s-0.1,2.3-0.1,2.9c0,0.4,0.2,0.6,0.6,0.6h5.3c0.3,0,0.4,0.1,0.4,0.3c0,0.3,0,0.6-0.1,0.9c0,0.4,0,0.7,0,0.9
	s0,0.6,0,1c0,0.5,0,0.8,0,1s-0.2,0.4-0.6,0.4s-1.5,0-2.7-0.1s-2.1-0.1-2.7-0.1c-0.1,0-0.2,0.4-0.3,1.3s-0.1,2.5-0.1,4.4v3.3
	c-0.1,0.9,0.1,1.8,0.4,2.7c0.4,0.8,1.3,1.3,2.2,1.2c0.7,0,1.4-0.1,2-0.3c0.7-0.2,1.3-0.3,2-0.3c0.2,0,0.3,0.1,0.3,0.4s0,0.8-0.1,1.4
	c-0.1,0.6-0.1,1.2-0.1,1.4s0,0.3,0,0.5c-0.1,0.1-0.3,0.3-0.4,0.3c-1.8,0.7-3.8,1-5.8,0.9c-3.5,0-5.2-1.6-5.2-4.7c0-1.3,0-3.2,0-5.7
	s0-4.4,0-5.7c0-0.5-0.3-0.9-0.8-1h-0.1L122.3,122.6z M122.3,91.9V77.7l0.4-1c0.4-1.1,0.7-1.8,0.8-1.9c0.1-0.2,0.2-0.7,0.4-1.4
	c0.2-0.7,0.3-1.2,0.5-1.7c0.2-0.4,0.4-1,0.7-1.8s0.5-1.4,0.6-1.7c0.1-0.3,0.3-1.1,0.6-1.9s0.4-1.4,0.5-1.9c0.3-0.8,0.6-1.6,1-2.6
	c0.4-1,0.6-1.6,0.7-1.9c0.6-1.6,0.9-3.2,0.9-4.9c-0.1-1.1-0.7-1.7-1.6-1.7c-0.6,0-1.1,0.2-1.6,0.5s-0.9,0.8-1.1,1.4
	c0,0.3,0,0.6,0,0.9c0.1,1.7-0.2,3.4-0.7,5c-0.2,0.5-0.5,1.4-1,2.8c-0.4,0.9-0.7,1.7-0.9,2.4V52.4c2.1-1.3,4.6-2,7.1-2
	c4-0.3,7.5,2.3,8.4,6.2c1.3,4.1,0.8,9.6-1.5,16.6c-1.8,5.7-4.9,10.8-9.1,15C125.7,89.6,124.1,90.9,122.3,91.9L122.3,91.9z
	 M122.3,52.4v13.8L122,67c-0.3,0.9-0.6,2-1.1,3.3s-0.7,2.2-0.9,2.7c-0.2,0.4-0.4,1.2-0.8,2.1c-0.4,1-0.6,1.7-0.8,2.2
	c0,0.2-0.2,0.5-0.4,1.2c-0.6,2.2-1.3,4.2-1.9,6c-0.7,1.6-1,3.4-1,5.1c0.1,0.9,1,1.5,1.9,1.4c0.5,0,1-0.1,1.4-0.4
	c0.4-0.2,0.7-0.6,0.8-1c0.1-0.7,0.2-1.3,0.1-2s0-1.4,0.2-2.1c0.1-0.3,0.2-0.7,0.4-1.1l0.3-0.7c0.2-0.5,0.4-1.2,0.6-2.2
	s0.4-1.7,0.6-2.1c0.1-0.4,0.4-1.2,0.7-1.9v14.3c-2.3,1.3-4.9,2.1-7.5,2.1c-2.5,0.2-5-0.9-6.7-2.8V71.6l0.1-0.3
	c1.8-5.6,4.9-10.7,9.1-14.9C118.8,54.9,120.5,53.5,122.3,52.4L122.3,52.4z M122.3,118.9v3.8h-0.1c-0.3,0-0.5-0.7-0.5-1.8
	c0-0.5,0-0.9,0.1-1.4C121.8,119.1,122,118.9,122.3,118.9L122.3,118.9z M108.1,140v-4.7c1.4-0.2,2.6-0.9,3.5-2c2.2-2.7,2.2-6.6,0-9.3
	c-0.9-1-2.1-1.7-3.4-1.9v-4.7c2.6,0.2,5,1.4,6.7,3.3c4.1,4.5,4.2,11.4,0.1,15.9C113.2,138.6,110.8,139.8,108.1,140L108.1,140z
	 M108.1,49.8v-8.7h0.2c1.1,0,1.7,0.3,1.9,0.9c0.1,1.2-0.1,2.4-0.6,3.6c-0.1,0.3-0.4,1-0.7,1.9C108.6,48.4,108.3,49.1,108.1,49.8
	L108.1,49.8z M91.7,12.8l0.5,0.4c2.5,2.1,4.8,4.4,6.9,6.9l2.2,2.6L95.2,28l-0.7-0.9l5.3-4.4l-1.5-1.8c-2-2.4-4.2-4.6-6.6-6.6
	C91.7,14.3,91.7,12.8,91.7,12.8z M108.1,41.1v8.7c-0.2,0.6-0.4,1.4-0.7,2.3s-0.4,1.6-0.6,1.9c-0.3,0.8-0.6,1.8-1.1,3.1
	c-0.5,1.2-0.8,2.1-0.9,2.5c-0.2,0.4-0.5,1.6-0.9,2.9c-0.4,1.3-0.7,2.3-0.9,2.9c-0.2,0.6-0.6,1.7-1.2,3.1c-0.5,1.4-0.9,2.5-1.2,3.2
	c-0.2,0.5-0.4,1.4-0.8,2.8s-0.7,2.5-1,3.3c-0.1,0.4-0.4,1.1-0.7,2c-0.4,1-0.7,1.8-0.9,2.3c-0.2,0.6-0.5,1.6-0.8,2.6
	c-0.3,1.1-0.5,1.8-0.6,2.1c-0.1,0.4-0.2,0.6-0.3,0.9c-0.1,0.3-0.2,0.5-0.2,0.6c-0.3,1-0.3,1.8,0,2.2s0.5,0.8,0.4,1
	c-0.1,0.5-0.4,0.9-0.7,1.2c-0.4,0.3-0.9,0.4-1.4,0.3h-1.9h-0.1V66.5c0.1-0.5,0.3-0.8,0.4-1.2c1.8-5.4,3.8-11.1,6-16.8
	c0.5-1.3,0.7-2,0.8-2.3c0.3-0.7,0.3-1.5,0-2.2c-0.3-0.3-0.4-0.8-0.4-1.2c0.1-0.5,0.4-0.9,0.8-1.2s0.9-0.4,1.4-0.4l1.2,0.1
	c0.5,0,1,0.1,1.4,0.1s1.2,0,2.3-0.1c1.1-0.1,1.9,0,2.5-0.1L108.1,41.1z M108.1,71.6c-2.2,6.9-2.8,12.4-1.6,16.3
	c0.3,1.2,0.9,2.3,1.6,3.3V71.6L108.1,71.6z M108.1,117.4v4.7c-0.3-0.1-0.7-0.1-1-0.1c-1.7,0-3.3,0.7-4.4,2c-2.3,2.7-2.3,6.6,0,9.3
	c1.1,1.3,2.7,2.1,4.4,2.1c0.3,0,0.6,0,1-0.1v4.7c-0.3,0-0.6,0-1,0c-3,0.1-5.8-1.2-7.8-3.4c-2-2.1-3.1-5-3.1-8c-0.1-2.9,1-5.8,3-8
	s4.8-3.4,7.8-3.4C107.3,117.3,107.7,117.3,108.1,117.4L108.1,117.4z M91.7,43.9c0.2-0.5,0.4-1,0.6-1.6c1.3-3.8,1.1-7-0.6-9.7V43.9z
	 M91.7,26.4l4.8-4c-1.5-1.8-3.1-3.5-4.8-5V26.4z M71.9,3.1l0.3-0.8l3.2,1.2c3.1,1.1,6,2.6,8.9,4.2l3,1.7l-3.5,6l1.4,1l4.5-5.3
	l2.1,1.8v1.5l-0.2-0.2l-1.8-1.4L85.3,18c-1-0.8-2.1-1.5-3.1-2.2l3.5-6l-1.9-1.2C80.9,7,78,5.6,75,4.5l-2.1-0.8l-1,2.6V3.1z
	 M71.9,109c1-0.3,2.1-0.6,3.1-1l2.1-0.8l-2.4-6.5c1.2-0.5,2.3-1,3.5-1.6l-0.4,1.5l-1.6,0.7l2.4,6.6l-3.2,1.2
	c-1.2,0.4-2.3,0.8-3.5,1.1C71.9,110.2,71.9,109,71.9,109z M91.7,17.3c-0.5-0.5-1.1-1-1.7-1.5l-4.4,5.3c-2-1.7-4.2-3.3-6.5-4.6
	l3.4-5.9c-2.7-1.5-5.4-2.8-8.3-3.9L71.9,13v11c0.8,0,1.7-0.1,2.5-0.2l0,0c1.4-0.1,3-0.3,4.4-0.3c4.4-0.3,8.7,0.8,12.4,3.2l0.4-0.4
	L91.7,17.3L91.7,17.3z M91.7,32.6v11.3c-0.9,1.9-2.1,3.6-3.6,5.2c-1.6,1.9-3.6,3.3-5.9,4.2l-1.5,0.3c-1.7,0.2-2.6,0.7-2.8,1.4
	s0.3,1.2,1.5,1.8c0.9,0.4,1.7,0.8,2.5,1.4c1.7,1.6,2.7,3.8,2.8,6.2c0.1,3.3-0.4,6.5-1.6,9.6c-2.2,6.7-5.4,11.6-9.6,14.9
	c-0.5,0.4-1.1,0.8-1.7,1.2V51c0.9-1.1,1.7-2.4,2.1-3.8l0.4-1.3c0.2-0.6,0.4-1.1,0.7-1.7c0.3-0.6,0.5-1.2,0.7-1.8
	c1.1-2.9,1.7-5.9,1.7-9c-0.2-2.1-1.1-3.1-2.8-3.1c-0.5,0-1,0.2-1.4,0.6c-0.4,0.5-0.7,1-0.9,1.7c0,0-0.1,0.4-0.2,0.9s-0.2,1-0.3,1.5
	v-7.5c0.8,0,1.8-0.1,2.8-0.2c1.9-0.2,3.3-0.3,4.1-0.3c5.5,0,9.5,1.4,12,4.3C91.2,31.7,91.5,32.1,91.7,32.6z M91.7,66.5
	c-0.2,0.6-0.4,1.3-0.6,2.1c-0.4,1.5-0.8,2.6-1.1,3.4c-0.3,0.8-0.8,2.2-1.4,3.8s-1,2.7-1.2,3.3c-1,3-1.9,6-2.6,9.1l-0.3,1
	c-0.3,0.5-0.7,0.9-1.1,1.2c-0.5,0.3-1,0.8-1.2,1.4c-0.2,0.5-0.2,0.9,0,1.1s0.7,0.3,1.5,0.3c0.4,0,1.2,0,2.4-0.1
	c1.1-0.1,2-0.1,2.7-0.1l3,0.2L91.7,66.5L91.7,66.5z M71.9,139.5V118c1.8,0.5,3.3,2,3.8,3.8c0.9-1.2,2.1-2.2,3.4-3s2.8-1.2,4.3-1.2
	c2.8,0,4.7,0.8,5.7,2.4c0.9,1.7,1.3,3.7,1.2,5.6c0,0.5,0,1.2,0,2.3c0,1,0,1.8,0,2.3c0,0.9,0,2.3,0.1,4.2s0.1,3.3,0.1,4.2
	c0,0.6-0.2,0.9-0.5,0.9s-0.6,0-1,0c-0.5,0-0.8,0-1,0h-1.1h-1.1c-0.3,0-0.5-0.4-0.5-1.1c0-0.7,0-1.7,0-3.1c0-1.4,0-2.4,0-3.1
	c0-3.8,0-5.9,0-6.3c0-1.1-0.3-2.2-1-3.2c-0.9-0.7-2-1-3.1-0.8c-1.2,0.1-2.3,0.6-3.2,1.4c-1,0.6-1.7,1.6-1.9,2.8c0,1.2,0,3.3,0,6.4
	c0,0.7,0,1.8,0.1,3.3s0.1,2.6,0.1,3.3c0,0.4-0.1,0.6-0.4,0.6s-0.7,0-1.2,0s-0.9,0-1.2,0h-1.1h-0.6L71.9,139.5z M71.9,106.6
	c0.8-0.3,1.5-0.5,2.3-0.8l-2.3-6.4V106.6L71.9,106.6z M71.9,99.3c2.5-0.9,4.9-2,7.2-3.4l0.4-0.9l-7.6,0.7V99.3z M61.6,0.3
	c1.4,0.1,2.9,0.3,4.3,0.6l3.4,0.6l-1.2,6.8l1.7,0.4L71.9,3v3.4l-1.4,3.9c-1.2-0.4-2.5-0.7-3.7-1L68,2.4L65.7,2
	c-1.4-0.2-2.8-0.4-4.1-0.6V0.3z M61.6,104.1h0.7l1.2,6.8l2.3-0.4c2.1-0.3,4.1-0.8,6.2-1.4v1.2c-2,0.6-4,1-6,1.4l-3.4,0.4l-0.9-5.3
	L61.6,104.1L61.6,104.1z M71.9,13L71.9,13c-2.5-0.8-5.2-1.5-7.8-2l1.2-6.8c-1.2-0.2-2.4-0.4-3.7-0.5v18.5c2.3,0.4,4.6,1,6.9,1.8h1.8
	c0.5,0,1.1,0,1.6,0C71.9,24,71.9,13,71.9,13z M71.9,27.5V35c-0.8,3.4-1.9,7.1-3.2,11c-0.4,1.2-0.9,2.5-1.5,3.6l-0.9,1.8
	c-0.2,0.5-0.1,1,0.2,1.4c0.3,0.4,0.7,0.6,1.2,0.6c1.4-0.1,2.7-0.8,3.6-1.9c0.2-0.2,0.4-0.4,0.6-0.7v38.8c-3.1,1.9-6.6,3.1-10.3,3.5
	v-8.6c1.7-3.4,3.1-7,4.3-10.6c2-6.1,3-10.4,3.1-12.9c0-2.5-0.8-3.7-2.6-3.7c-0.7,0-1.4,0.2-1.9,0.6c-0.6,0.4-1,0.9-1.2,1.5
	c0,0.2,0,0.4,0,0.5c0,2.7-0.5,5.3-1.4,7.8l-0.2,0.6V27.2c2.9,0.2,5.8,0.3,8.7,0.3C70.8,27.5,71.3,27.5,71.9,27.5L71.9,27.5z
	 M71.9,95.7l-10.3,0.9v5.2c0.9-0.1,1.7-0.2,2.5-0.4l1.2,6.8c2.2-0.4,4.4-1,6.6-1.6v-7.2v-0.1l0,0V95.7z M71.9,118v21.5h-0.5
	c-0.3,0-0.4-0.2-0.4-0.7c0-0.7,0-1.8,0-3.2s0-2.5,0-3.2V127c0.1-1.2-0.1-2.5-0.6-3.6c-0.7-1-1.9-1.6-3.2-1.5
	c-1.2,0.1-2.4,0.5-3.3,1.2c-1.4,0.9-2.1,1.7-2.1,2.6v6.5c0,0.8,0,1.9,0,3.3c0,1.5,0,2.6,0,3.3c0,0.2,0,0.4-0.2,0.6v-18.1l0,0l1.1-1
	c0.8-0.7,1.7-1.3,2.6-1.8c1.2-0.6,2.5-1,3.8-1C70,117.6,71,117.7,71.9,118z M51,7.2c0.6-0.1,1.2-0.1,1.8-0.2L53,0h3.3
	c1.7,0,3.5,0.1,5.2,0.3v1.2c-1.7-0.1-3.5-0.3-5.2-0.3h-2.2l-0.2,6.9c-1.3,0.1-2.6,0.2-3.9,0.3L50,8V1.4L51,7.2L51,7.2z M50,110.9
	c2,0.2,4.1,0.4,6.2,0.4h2.2v-6.9c1.1,0,2.1-0.1,3.1-0.3v2.8l-0.3-1.6l-1.7,0.1v7h-3.4c-2.1,0-4.1-0.1-6.2-0.4L50,110.9L50,110.9z
	 M61.6,3.8c-1.7-0.2-3.5-0.3-5.2-0.3l-0.2,6.9c-2.1,0-4.1,0.1-6.2,0.4v11.6c3.8-0.7,7.8-0.7,11.6-0.1C61.6,22.2,61.6,3.8,61.6,3.8z
	 M61.6,27.2v41.4l-1.3,4c-0.5,1.5-1,3-1.6,4.5s-0.9,2.3-0.9,2.4l-0.6,1.8c-0.4,1.3-1,2.7-1.7,3.9c-0.7,1.4-1.1,2.1-1.1,2.2
	c-0.3,0.6-0.3,1.3,0,1.8s0.8,0.7,1.3,0.7c1.7,0,3.4-1.2,5-3.7c0.3-0.5,0.6-1,0.9-1.5v8.6c-1.3,0.1-2.6,0.2-4,0.2
	c-2.6,0-5.1,0-7.6-0.1v-39l1-3.1c0.8-2.5,1.7-5.2,2.5-8.1c0.9-2.9,1.4-4.5,1.5-4.9s0.4-1.2,0.8-2.1s0.7-1.6,0.8-2.1
	c0.4-0.8,0.4-1.8,0-2.7c-0.4-0.5-0.5-1.1-0.4-1.7c0.2-0.8,0.6-1.6,1.1-2.2c0.4-0.4,1-0.6,1.6-0.5l1.1,0.1L61.6,27.2L61.6,27.2z
	 M61.6,96.6l-4,0.4c-2.5,0-5.1,0-7.6-0.1v11.8c2,0.2,4.1,0.4,6.2,0.4v-6.9c1.8,0,3.6-0.1,5.4-0.3C61.6,101.9,61.6,96.6,61.6,96.6z
	 M61.6,121.4v18.1c-0.1,0.1-0.2,0.1-0.3,0.1h-4.2c-0.3,0-0.4-0.2-0.4-0.6v-11c0-2.7-0.3-5.5-0.9-8.1c0-0.2,0-0.3,0-0.5
	s0.1-0.3,0.2-0.3c0.5,0,1.4-0.2,2.4-0.3c0.5-0.1,1.2-0.3,2.2-0.5h0.2c0.2,0,0.4,0.5,0.5,1.6C61.2,120.4,61.4,120.9,61.6,121.4z
	 M50,8l-1.1-6.4L46.7,2c-3.1,0.5-6.1,1.4-9.1,2.4l-2.1,0.8l2.2,6.6c-1.2,0.5-2.4,1.1-3.5,1.6l-3.5-6l-2,1.2C26,10.2,23.4,12,21,14
	l-1.7,1.4l4.3,5.5c-0.9,0.9-1.9,1.8-2.8,2.8l-5.3-4.4L14,20.9c-2,2.4-3.9,5-5.5,7.8l-1.1,1.9l5.9,3.6c-0.6,1.1-1.1,2.3-1.6,3.5
	l-6.5-2.4l-0.8,2.1c-1.1,3-1.9,6.1-2.5,9.2l-0.4,2.2L8.3,50c-0.1,1.2-0.2,2.5-0.3,3.8H1v2.3c0,3.2,0.3,6.4,0.9,9.6L2.4,68l6.8-1.2
	c0.3,1.2,0.6,2.5,1,3.7l-6.5,2.3L4.5,75c1.1,3,2.5,5.9,4.1,8.7l1.2,2l6-3.5c0.7,1.1,1.4,2.1,2.2,3.1l-5.3,4.5l1.5,1.8
	c2.1,2.4,4.3,4.7,6.8,6.8l1.8,1.4l4.5-5.3c1,0.8,2,1.5,3.1,2.2l-3.5,6l2,1.2c2.8,1.6,5.7,3,8.7,4.1l2.2,0.8l2.4-6.5
	c1.2,0.4,2.4,0.7,3.7,1l-1.2,6.8l2.3,0.4c1.1,0.2,2.2,0.4,3.4,0.5v1.2c-1.2-0.1-2.4-0.3-3.6-0.5L43,111l1.2-6.9
	c-0.6-0.1-1.1-0.3-1.7-0.4l-2.4,6.6L37,109c-3.1-1.1-6-2.6-8.9-4.2l-3-1.7l3.5-6.1l-1.4-1l-4.5,5.4l-2.6-2.2
	c-2.5-2.1-4.8-4.4-6.9-6.9L11,89.7l5.3-4.5c-0.3-0.5-0.7-0.9-1-1.4l-6.1,3.5l-1.7-3c-1.7-2.8-3.1-5.8-4.2-8.9l-1.2-3.2l6.6-2.4
	c-0.2-0.6-0.3-1.1-0.4-1.7l-6.9,1.2L0.8,66C0.3,62.7,0,59.5,0,56.2v-3.4h7l0.1-1.7l-6.9-1.3l0.6-3.4C1.4,43.2,2.2,40,3.3,37l1.2-3.2
	l6.6,2.4c0.2-0.5,0.5-1.1,0.8-1.6l-6-3.6l1.7-3c1.6-2.8,3.5-5.4,5.6-7.9l2.2-2.6l5.3,4.5l1.3-1.3l-4.4-5.5l2.6-2.2
	c2.5-2.1,5.1-3.9,7.9-5.5l3-1.7l3.5,6.1l1.6-0.8L34,4.5l3.2-1.1c3-1.1,6.1-1.9,9.3-2.5l3.4-0.6L50,1.4V8L50,8z M50,10.8
	c-0.6,0.1-1.2,0.2-1.8,0.3L47,4.3c-3,0.5-5.9,1.3-8.7,2.3l2.2,6.5c-2.5,0.9-5,2-7.3,3.3l-3.4-5.9c-2.6,1.5-5.1,3.2-7.4,5.2l4.3,5.4
	c-2,1.7-3.9,3.6-5.6,5.6l-5.3-4.3c-2,2.3-3.7,4.8-5.2,7.4l5.9,3.5c-1.3,2.3-2.5,4.8-3.4,7.3l-6.5-2.4C5.5,41.1,4.7,44,4.2,47
	l6.8,1.2c-0.5,2.6-0.7,5.3-0.7,8H3.4c0,3.1,0.3,6.1,0.8,9.2l6.8-1.2c0.5,2.6,1.2,5.2,2.1,7.7l-6.5,2.4c1.1,2.9,2.4,5.7,3.9,8.3
	l5.9-3.4c1.3,2.3,2.9,4.5,4.6,6.6l-5.2,4.4c2,2.3,4.2,4.5,6.5,6.5l4.4-5.3c2,1.7,4.2,3.2,6.5,4.6l-3.4,5.9c2.7,1.5,5.4,2.8,8.3,3.9
	l2.4-6.5c2.5,0.9,5.1,1.6,7.7,2.1l-1.2,6.8c1,0.2,2,0.3,3,0.4V96.8h-0.6l-4-0.1c-2.2,0-4.3,0-6.5,0.1c-6.5,0.5-7.4-6.7-3-10.6
	c0.1-0.5,0.2-0.9,0.3-1.4l0.2-0.5C20.9,73.5,17.1,52.1,28,36.5c5.2-7.4,13.1-12.5,22-14.1V10.8L50,10.8z M50,54.5l-1.4,3.9
	c-1,3-2.2,6.7-3.5,11.1s-2.2,7.2-2.7,8.6c-0.5,1.7-1.2,3.4-1.9,5.1l-1,2.8c-0.1,0.4-0.2,0.7-0.3,1.1c0,0.3-0.1,0.6-0.2,0.9
	c-0.3,0.6-0.7,1-1.3,1.2c-0.7,0.3-1.2,0.8-1.4,1.5c-0.3,0.7-0.4,1.5-0.4,2.3c0.1,0.4,0.6,0.5,1.5,0.5h1.3c2.3-0.1,4.6-0.1,6.6-0.1
	l4.1,0.1H50V54.5z"/>
</svg>
