<?xml version="1.0" encoding="utf-8"?>
<!-- Generator: Adobe Illustrator 22.1.0, SVG Export Plug-In . SVG Version: 6.00 Build 0)  -->
<svg version="1.1" id="Capa_1" xmlns="http://www.w3.org/2000/svg" xmlns:xlink="http://www.w3.org/1999/xlink" x="0px" y="0px"
	 viewBox="0 0 512 512" style="enable-background:new 0 0 512 512;" xml:space="preserve">
<style type="text/css">
	.st0{fill:#2E9CCA;}
</style>
<g>
	<g>
		<path class="st0" d="M255.4,4.7c-6.3-6.3-16.6-6.3-22.9,0L4.8,232.4c-6.3,6.3-6.3,16.6,0,22.9L15.2,266L265.9,15.3L255.4,4.7z"/>
	</g>
</g>
<g>
	<g>
		<path class="st0" d="M490.1,385.1c-9.5-9.6-21.5-16.4-34.6-19.6c-13-3.2-26.7-2.9-39.5,1c-2.7,1-5.8,0.4-7.8-1.7L307.8,264.5
			l-43.4,43.4l100.3,100.3c1.9,1.9,2.6,4.7,1.8,7.3c-12.2,39.2,9.8,80.9,49,93.1c7.1,2.2,14.5,3.3,22,3.3
			C503.6,512,536.7,431.8,490.1,385.1z M437.5,481.8c-24.4,0-44.1-19.8-44.1-44.2c0-11.7,4.7-22.9,13-31.2
			c8.3-8.3,19.5-12.9,31.2-12.9c24.4,0,44.1,19.8,44.1,44.1C481.6,462,461.8,481.8,437.5,481.8z"/>
	</g>
</g>
<g>
	<g>
		<path class="st0" d="M411.3,161.1l-72.7-72.9l-47.4,47c-2.9,2.9-7.5,2.9-10.3,0c-2.9-2.9-2.9-7.5,0-10.3L328.3,78L276,25.6
			L25.2,276l52.4,52.2l47.4-47c2.9-2.9,7.5-2.9,10.4-0.1c2.9,2.9,2.9,7.5,0.1,10.4l-47.3,46.9l72.8,72.8c6.3,6.3,16.6,6.3,22.9,0
			l39.3-39.3c-10.3-15.3-8.4-35.9,4.7-49l95.3-95.3c13.1-13.1,33.6-15,49-4.7l39.2-39.2C417.6,177.7,417.6,167.4,411.3,161.1z
			 M253.3,253.1c-22.2,22.2-58.1,22.2-80.3,0l0,0c-22.1-22.1-22.2-58-0.2-80.2l0.2-0.1c22.2-22.2,58.1-22.2,80.3,0
			C275.4,194.9,275.4,230.9,253.3,253.1z"/>
	</g>
</g>
<g>
	<g>
		<path class="st0" d="M212.8,170.9c-11.1,0-21.8,4.4-29.7,12.3c-16.4,16.5-16.4,43.2,0.1,59.6c7.9,7.9,18.6,12.3,29.7,12.3
			c23.3,0,42.1-18.9,42.1-42.2C255,189.7,236.1,170.9,212.8,170.9z"/>
	</g>
</g>
</svg>
